<?xml version="1.0" encoding="UTF-8"?>
<svg id="Layer_2" data-name="Layer 2" xmlns="http://www.w3.org/2000/svg" viewBox="0 0 244.06 53.03">
  <defs>
    <style>
      .cls-1 {
        fill: #224660;
        font-size: 6.13px;
        letter-spacing: .26em;
      }

      .cls-1, .cls-2 {
        font-family: FuturaBT-Medium, 'Futura Md BT';
        font-weight: 500;
      }

      .cls-3 {
        fill: none;
        stroke: #0d283d;
        stroke-width: 3px;
      }

      .cls-3, .cls-4 {
        stroke-miterlimit: 10;
      }

      .cls-4 {
        fill: #fff;
        stroke: #09283d;
        stroke-width: .5px;
      }

      .cls-2 {
        fill: #0b283d;
        font-size: 31.45px;
      }

      .cls-5 {
        fill: #0e283d;
        stroke-width: 0px;
      }
    </style>
  </defs>
  <g id="Layer_1-2" data-name="Layer 1">
    <text class="cls-2" transform="translate(60.66 36.49) scale(.99 1)"><tspan x="0" y="0">alaxyFinance</tspan></text>
    <g>
      <g>
        <path class="cls-5" d="M57.86,7.61c-1.97-1.6-6.7-.86-12.65,1.61.72.2,1.42.42,2.1.69,3.56-1.09,6.31-1.22,7.63-.15,1.32,1.07,1.04,3.16-.51,5.84.03.05.07.11.1.16l-.31.2c-2.44,4.01-7.58,9.23-14.4,14.27-11.67,8.62-23.81,13.44-27.13,10.76-1.38-1.11-1.01-3.35.72-6.2-.3-.53-.56-1.06-.77-1.62-3.62,4.61-4.87,8.34-2.86,9.97,3.78,3.05,17.6-2.43,30.88-12.24,13.28-9.81,20.98-20.24,17.2-23.29Z"/>
        <path class="cls-5" d="M66.16,1.14c-3.49-2.82-13.36-.23-24.99,5.94.87.11,1.71.26,2.54.45,8.69-4.15,15.81-5.69,18.52-3.49,4.48,3.62-4.65,15.98-20.39,27.62-15.74,11.63-32.13,18.13-36.61,14.51-2.87-2.32-.15-8.23,6.31-15.23-.19-.63-.33-1.28-.41-1.94C1.9,38.15-2.34,46.15,1.29,49.08c5.1,4.12,23.75-3.28,41.66-16.52,17.91-13.24,28.3-27.31,23.21-31.43Z"/>
      </g>
      <path class="cls-3" d="M50.16,31.83h6.78c-.22,1.38-.56,2.76-1.04,4.12-4.3,12.16-17.65,18.54-29.82,14.24-12.17-4.3-18.54-17.65-14.24-29.82C16.14,8.21,29.49,1.83,41.66,6.14c5.73,2.03,10.17,6.06,12.82,11.03"/>
    </g>
    <rect class="cls-4" x="60.81" y="40.42" width="183" height="8.57" rx="4.29" ry="4.29"/>
    <text class="cls-1" transform="translate(68.29 46.61) scale(.99 1)"><tspan x="0" y="0">Authorised Electronic Money Institution</tspan></text>
  </g>
</svg>